<?xml version="1.0" standalone="yes"?>
<svg version="1.1" viewBox="0.0 0.0 380 730" fill="none" stroke="none" stroke-linecap="square" stroke-miterlimit="10" xmlns="http://www.w3.org/2000/svg" xmlns:xlink="http://www.w3.org/1999/xlink" opacity="0.2"><clipPath id="p.0"><path d="m0 0l380.11285 0l0 718.99475l-380.11285 0l0 -718.99475z" clip-rule="nonzero"></path></clipPath><g clip-path="url(#p.0)"><path fill="#000000" fill-opacity="0.0" d="m0 0l380.11285 0l0 718.99475l-380.11285 0z" fill-rule="nonzero"></path><path fill="#ffffff" d="m357.40915 392.28543l-215.97906 92.68359l0 216.28409l216.55981 -92.694824z" fill-rule="nonzero"></path><path fill="#ffffff" d="m17.991877 334.21l0 216.4183l123.94729 150.49054l0 -216.0156z" fill-rule="nonzero"></path><path fill="#e60000" d="m64.1498 390.23846l0 125.17767l-33.529137 50.211975l16.550669 20.24591l26.746662 -35.693176l32.89634 108.54474l18.457962 22.102661l-40.53443 -139.84192l0 -126.38568z" fill-rule="nonzero"></path><path fill="#e60000" d="m228.95105 446.83743l-86.80432 201.10526l47.078217 -20.514343l0 53.668335l39.726105 -17.046753l0 -54.59674l38.539886 -16.509888l0 54.328247l39.726105 -17.046814l0 -54.070984l50.463898 -21.308533l-90.33829 -123.05237z" fill-rule="nonzero"></path><path fill="#ffffff" d="m243.65053 245.39674l0 216.28407l-185.92645 -111.86682l0 -216.82098z" fill-rule="nonzero"></path><path fill="#e60000" d="m126.85645 176.76772l0 87.19481l-68.99256 3.9493103l0 44.515594l69.24983 -3.1638794l-0.2572708 81.26529l38.61257 23.054321l0 -37.1369l-0.25727844 -44.526672l78.29895 91.67514l0 -45.0466l-78.04167 -91.144104l0 -87.980255z" fill-rule="nonzero"></path><path fill="#ffffff" d="m76.55922 16.79078l203.69014 0l0 203.69016l-203.69014 0z" fill-rule="nonzero"></path><path stroke="#e60000" stroke-width="1.0" stroke-linejoin="round" stroke-linecap="butt" d="m76.55922 16.79078l203.69014 0l0 203.69016l-203.69014 0z" fill-rule="nonzero"></path><path fill="#e60000" d="m96.585175 118.63586l0 0c0 -43.17073 34.99678 -78.16752 78.16751 -78.16752l0 0c20.731308 0 40.613525 8.235481 55.27278 22.894737c14.659256 14.659248 22.89473 34.541466 22.89473 55.27278l0 0c0 43.170723 -34.99678 78.16752 -78.16751 78.16752l0 0c-43.17073 0 -78.16751 -34.996796 -78.16751 -78.16752z" fill-rule="nonzero"></path><path stroke="#e60000" stroke-width="1.0" stroke-linejoin="round" stroke-linecap="butt" d="m96.585175 118.63586l0 0c0 -43.17073 34.99678 -78.16752 78.16751 -78.16752l0 0c20.731308 0 40.613525 8.235481 55.27278 22.894737c14.659256 14.659248 22.89473 34.541466 22.89473 55.27278l0 0c0 43.170723 -34.99678 78.16752 -78.16751 78.16752l0 0c-43.17073 0 -78.16751 -34.996796 -78.16751 -78.16752z" fill-rule="nonzero"></path><path fill="#ffffff" d="m243.93224 245.9643l12.78511 -23.433762l24.496368 0l36.755768 -20.782776l0 124.6631l-73.51152 133.71225z" fill-rule="nonzero"></path></g></svg>